General:

Format : Matroska
File size : 1.59 GiB
Duration : 41mn 36s
Overall bit rate : 5 477 Kbps
Encoded date : UTC 2010-10-11 09:19:51
Writing application : mkvmerge v4.0.0
Writing library : libebml v1.0.0 + libmatroska v1.0.0

Video:

ID : 1
Format : AVC
Format/Info : Advanced Video Codec
Format profile : Baseline@L3.1
Format settings, CABAC : No
Format settings, ReFrames : 1 frame
Muxing mode : Container profile=Unknown@3.1
Codec ID : V_MPEG4/ISO/AVC
Duration : 41mn 36s
Bit rate : 4 920 Kbps
Nominal bit rate : 5 000 Kbps
Width : 1 280 pixels
Height : 720 pixels
Display aspect ratio : 16:9
Frame rate : 30.000 fps
Resolution : 24 bits
Colorimetry : 4:2:0
Scan type : Progressive
Bits/(Pixel*Frame) : 0.178
Stream size : 1.43 GiB (90%)


Audio:

ID : 2
Format : AC-3
Format/Info : Audio Coding 3
Codec ID : A_AC3
Duration : 41mn 36s
Bit rate mode : Constant
Bit rate : 448 Kbps
Channel(s) : 2 channels
Channel positions : L R
Sampling rate : 44.1 KHz
Stream size : 133 MiB (8%)




Tracklist:

If Ever I Could Love
'Til Summer Comes Around
Sweet Thing
Perfectly Lonely
Gravity
Faith